<svg width="22" height="19" viewBox="0 0 22 19" fill="none" xmlns="http://www.w3.org/2000/svg">
<path d="M20.1905 0.61607L0.860267 16.8361C0.504576 17.1345 0.45818 17.6654 0.756595 18.021C1.05506 18.3767 1.58594 18.4231 1.94157 18.1247L21.2718 1.90472C21.6275 1.60626 21.6739 1.07538 21.3755 0.719742C21.0771 0.364007 20.5462 0.31761 20.1905 0.61607Z" fill="black"/>
<path d="M0.644737 1.82769L19.9778 18.0501C20.3336 18.3486 20.8642 18.3025 21.1622 17.9473C21.4602 17.5921 21.4134 17.0616 21.0577 16.7631L1.72462 0.540732C1.36893 0.242273 0.838326 0.288254 0.540259 0.643477C0.242191 0.9987 0.289047 1.52923 0.644737 1.82769Z" fill="black"/>
</svg>
